<svg width="67" height="36" viewBox="0 0 67 36" fill="none" xmlns="http://www.w3.org/2000/svg">
<path id="Vector" d="M52.9048 1.20267L48.1096 20.5359L43.3009 1.20267H29.4119V8.34178C27.7242 2.09443 21.5329 0.527547 16.0007 0.438539C9.25523 0.351211 1.78122 3.24818 1.52197 12.0885H10.8514C10.8514 9.41996 13.3167 7.8917 15.6448 7.93032C18.5033 7.90681 19.8181 9.11598 19.8842 10.9986C19.786 12.6326 18.8134 13.7696 15.6685 13.7696H12.5305V20.1849H15.3788C16.997 20.1849 19.2488 21.0582 19.3369 23.3421C19.4454 26.0644 17.5358 27.2602 15.1856 27.2837C10.9903 27.1292 9.90758 23.935 9.90758 21.1875H0.22406C0.264726 23.0382 0.203727 35.1013 15.3805 35.0123C22.6512 35.0778 27.9428 32.0481 29.4356 27.8715V34.2733H38.7751V13.4152L43.9397 34.2733H52.2846L57.4678 13.4387V34.2918H66.9971V1.20267H52.9048ZM29.4424 20.4905C28.2529 18.0521 26.5788 16.9856 25.6367 16.6481C27.6141 15.7765 28.6494 14.5942 29.4424 12.238V20.4905Z" fill="gray"/>
</svg>
