<svg width="78" height="36" viewBox="0 0 78 36" fill="none" xmlns="http://www.w3.org/2000/svg">
<path d="M63.7313 7.72106H59.3526V12.0949H63.7313C64.7706 12.0949 65.6067 12.9413 65.6067 13.9744C65.6067 15.0147 64.7706 15.8507 63.7313 15.8507H59.3526V20.2283H63.7313C67.1867 20.2283 69.9857 17.4268 69.9857 13.9744C69.9857 10.5212 67.1867 7.72106 63.7313 7.72106ZM38.7773 30.8655C44.0188 30.8655 48.5361 27.796 50.6464 23.3538H56.2279V30.8655H59.3526V23.3538H63.7313C68.9159 23.3538 73.116 19.1539 73.116 13.9744C73.116 8.79366 68.9159 4.59223 63.7313 4.59223H56.2279V15.8507H51.7748C50.8667 9.48806 45.3934 4.59223 38.7773 4.59223H23.3787L8.06155 30.8655H11.7155L16.0934 23.3538H31.8342V30.8655H38.7773ZM77.4947 13.9744C77.4947 21.5726 71.3318 27.7314 63.7313 27.7314V35.2355H51.8509V29.3815C48.6369 32.9745 43.975 35.2355 38.7773 35.2355H27.4555V27.7314H18.6067L14.2289 35.2355H0.331909L20.7591 0.214626H38.7773C43.975 0.214626 48.6369 2.48185 51.8509 6.07518V0.214626H63.7313C71.3318 0.214626 77.4947 6.3783 77.4947 13.9744ZM27.4555 7.72106V15.8507H20.4712L17.9203 20.2283H31.8342V7.72106H27.4555V7.72106ZM48.787 17.725C48.787 23.2521 44.3037 27.7314 38.7773 27.7314H34.9608V23.3538H38.7773C41.8887 23.3538 44.41 20.8372 44.41 17.725C44.41 14.6195 41.8887 12.0949 38.7773 12.0949H34.9608V7.72106H38.7773C44.3037 7.72106 48.787 12.2003 48.787 17.725Z" fill="gray"/>
</svg>
