<svg width="134" height="56" viewBox="0 0 134 56" fill="none" xmlns="http://www.w3.org/2000/svg">
<path d="M115.714 24.4601C113.47 24.9736 107.545 25.2589 107.545 25.2589L106.816 27.5794C106.816 27.5794 109.75 27.3321 111.898 27.5414C111.898 27.5414 112.588 27.4843 112.665 28.3022C112.703 29.1391 112.607 30.014 112.607 30.014C112.607 30.014 112.55 30.5276 111.84 30.6607C111.016 30.7938 105.454 31.0411 105.454 31.0411L104.553 34.0463C104.553 34.0463 104.227 34.731 104.975 34.5408C105.665 34.3506 111.495 33.2475 112.262 33.3996C113.068 33.5898 113.988 34.693 113.72 35.682C113.413 36.8803 107.583 40.5703 104.054 40.323C104.054 40.323 102.194 40.4371 100.641 37.9455C99.1447 35.5679 101.158 31.0982 101.158 31.0982C101.158 31.0982 100.257 29.0059 100.928 28.2451C100.928 28.2451 101.312 27.9218 102.462 27.8267L103.901 24.8976C103.901 24.8976 102.271 24.9927 101.312 23.8134C100.43 22.6722 100.353 22.1777 101.043 21.8733C101.772 21.4929 108.523 20.2946 113.164 20.4468C113.164 20.4468 114.794 20.2566 116.232 23.0526C116.232 23.0526 116.884 24.1938 115.733 24.4601M98.2242 35.7201C97.6489 37.1086 96.0571 38.5731 94.1394 37.6792C92.1832 36.7662 89.0956 30.5276 89.0956 30.5276C89.0956 30.5276 87.945 28.2071 87.7148 28.2832C87.7148 28.2832 87.4655 27.8267 87.3313 30.3754C87.1395 32.9051 87.3696 37.8313 86.3149 38.6112C85.356 39.372 84.2053 39.0486 83.5533 38.1547C83.0163 37.2607 82.7862 35.1114 83.093 31.3644C83.4382 27.6174 84.3012 23.6232 85.3943 22.3869C86.545 21.1315 87.4655 22.0445 87.8107 22.3869C87.8107 22.3869 89.2874 23.7183 91.7805 27.6555L92.2024 28.3783C92.2024 28.3783 94.4654 32.1253 94.6955 32.1062C94.6955 32.1062 94.8873 32.2964 95.0407 32.1443C95.2708 32.0872 95.1941 30.8699 95.1941 30.8699C95.1941 30.8699 94.7722 26.8186 92.6627 19.9713C92.6627 19.9713 92.3558 19.0964 92.5668 18.2595C92.7586 17.4987 93.5832 17.8791 93.5832 17.8791C93.5832 17.8791 96.7667 19.4007 98.3201 24.5362C99.8543 29.6716 98.8187 34.3316 98.2434 35.7201M82.6136 22.539C82.3067 23.0716 82.1725 23.8134 80.8492 24.0226C80.8492 24.0226 68.0002 24.9166 67.3673 25.8105C67.3673 25.8105 66.9454 26.3431 67.6358 26.4762C68.3646 26.6284 71.2796 27.0088 72.6604 27.0849C74.1562 27.0849 79.1808 27.1229 81.0218 29.3673C81.0218 29.3673 82.0766 30.4325 82.0383 32.848C81.9999 35.3207 81.5588 36.1956 80.5807 37.0895C79.5643 37.9264 70.8577 41.8066 65.2386 35.8723C65.2386 35.8723 62.6688 33.0192 66.14 30.8509C66.14 30.8509 68.6331 29.3293 75.0192 31.0982C75.0192 31.0982 76.937 31.7829 76.8603 32.4866C76.7452 33.2475 75.2685 34.0083 73.1206 33.9702C71.0494 33.9132 69.5152 32.9241 69.8221 33.0953C70.1097 33.1904 67.5783 31.878 66.792 32.7719C66.0249 33.6088 66.2167 34.1034 66.9838 34.6169C68.9015 35.7201 76.4384 35.3207 78.6822 32.829C78.6822 32.829 79.5835 31.8209 78.2219 31.0031C76.8795 30.2422 72.9672 29.7667 71.4522 29.7097C70.0138 29.6336 64.6249 29.7097 63.8195 28.3212C63.8195 28.3212 63.0523 27.3321 63.8962 24.6313C64.7783 21.7782 71.0494 20.6751 73.7727 20.4468C73.7727 20.4468 81.252 20.1425 82.6519 21.6641C82.6519 21.6641 82.8437 22.0065 82.6136 22.52M61.4031 39.2579C60.5017 39.9236 58.5839 39.6383 58.0278 38.8775C57.4908 38.2117 57.299 35.5869 57.3949 31.4595C57.5292 27.237 57.5867 22.0635 58.5456 21.2266C59.5045 20.4088 60.0798 21.1315 60.4634 21.6831C60.8469 22.2537 61.3455 22.8814 61.4222 24.1938C61.5373 25.5252 61.8633 32.3725 61.8633 32.3725C61.8633 32.3725 62.2852 38.6112 61.4222 39.2579M63.3208 17.0041C60.6743 17.8981 58.8716 17.6128 57.3374 16.9471C56.6662 18.1454 56.2635 18.5067 55.7648 18.5828C54.9977 18.6589 54.3265 17.4416 54.2306 17.0612C54.0772 16.7759 53.7128 16.2623 54.1539 15.1021C52.658 13.7707 52.543 11.9828 52.8115 10.7845C53.1567 9.37701 55.6881 4.08937 63.3592 3.4617C63.3592 3.4617 67.118 3.19542 67.7701 5.17352H67.8851C67.8851 5.17352 71.5289 5.17352 71.4522 8.40697C71.4522 11.6404 67.4249 15.6727 63.3208 17.0612M66.7345 7.79832C64.3181 8.17873 60.5976 11.3741 58.8141 14.018C61.5565 14.5125 66.3509 14.3223 68.4988 10.0237C68.4988 10.0237 69.5152 7.32282 66.7345 7.79832ZM56.1292 9.89055C55.3621 11.1269 55.3237 11.8687 55.6881 12.3632C56.5895 11.0318 58.1812 8.93954 60.5784 7.3038C58.7374 7.494 57.184 8.25481 56.1292 9.89055ZM121.468 39.1247C119.703 43.4233 118.207 47.7789 117.344 54.3029C117.344 54.3029 117.153 55.5773 116.098 55.1588C115.043 54.7784 113.317 53.0666 112.933 50.651C112.55 47.4936 113.969 42.168 116.865 36.0434C116.021 34.712 115.427 32.7339 115.906 29.9569C115.906 29.9569 116.673 24.8215 121.851 20.1805C121.851 20.1805 122.465 19.667 122.81 19.8382C123.232 20.0284 123.059 21.6641 122.714 22.501C122.407 23.2998 120.106 27.2561 120.106 27.2561C120.106 27.2561 118.668 29.9569 119.07 32.0682C121.794 27.9218 127.988 19.5148 131.824 22.1777C134.259 23.8895 134.259 29.4054 132.437 32.6008C130.999 35.1305 126.933 40.361 121.506 39.1437M129.484 26.21C128.065 27.7316 125.533 30.6227 123.539 34.5408C125.648 34.3126 127.7 33.1524 128.333 32.5627C129.35 31.6688 131.689 29.2532 131.325 26.0578C131.325 26.0578 131.095 24.384 129.484 26.21M43.5678 41.3691C36.7789 43.4233 30.3736 42.4723 26.8832 41.5593C26.7874 42.9668 26.6339 43.5564 26.4038 43.7847C26.1353 44.089 23.9107 45.3443 22.6833 43.5564C22.1464 42.7005 21.8779 41.1599 21.7245 39.7524C13.8616 36.2146 10.2178 31.0031 10.1028 30.8129C9.911 30.6227 8.12748 28.7777 9.911 26.4953C11.5795 24.4411 17.1026 22.3679 22.0505 21.55C22.2422 17.3655 22.7025 14.1321 23.297 12.7056C24.0066 10.9937 24.9079 12.5154 25.7134 13.6566C26.3654 14.5125 26.7682 18.1834 26.8065 21.1125C30.0284 20.9604 31.9845 21.1886 35.5707 21.8733C40.2884 22.6722 43.4336 25.0687 43.1843 27.7696C42.9541 30.4325 40.4994 31.5356 39.5405 31.6117C38.5816 31.6878 37.0474 30.984 37.0474 30.984C35.9735 30.4895 36.9515 30.033 38.1981 29.5005C39.5789 28.8348 39.272 28.169 39.272 28.169C38.7734 26.6474 32.6557 25.6393 26.5764 25.6393C26.5764 28.9679 26.7106 34.4838 26.8065 37.6982C31.064 38.497 34.2475 38.3259 34.2475 38.3259C34.2475 38.3259 49.7814 37.8884 50.2225 28.0549C50.7019 18.2024 34.6886 8.76836 22.8943 5.80119C11.1192 2.73893 4.44536 4.90724 3.87003 5.19254C3.23717 5.49687 3.8125 5.61099 3.8125 5.61099C3.8125 5.61099 4.44536 5.70609 5.59602 6.0865C6.74669 6.4669 5.82616 7.03751 5.82616 7.03751C3.8125 7.72224 1.56871 7.32282 1.12763 6.40984C0.686539 5.51589 1.41529 4.69802 2.27829 3.49974C3.08375 2.26342 4.00428 2.30146 4.00428 2.30146C18.5793 -2.73891 36.3762 6.29572 36.3762 6.29572C53.0224 14.6266 55.8607 24.422 55.5539 28.2261C55.2854 31.9731 53.8279 38.3068 43.5678 41.3881M11.5411 27.7696C9.89182 28.5304 11.0425 29.7477 11.0425 29.7477C14.1493 33.0382 17.9464 35.1114 21.5902 36.4048C22.0121 30.6987 21.9738 28.6636 21.9738 25.7915C16.3355 26.1719 13.0753 27.0849 11.5411 27.7696Z" fill="gray"/>
</svg>
