<?xml version="1.0" encoding="UTF-8"?>
<svg width="700pt" height="700pt" version="1.1" viewBox="0 0 700 700" xmlns="http://www.w3.org/2000/svg" xmlns:xlink="http://www.w3.org/1999/xlink">
 <defs>
  <symbol id="b" overflow="visible">
   <path d="m39.078-2.3281c-2.0117 1.043-4.1094 1.8281-6.2969 2.3594s-4.4648 0.79688-6.8281 0.79688c-7.0859 0-12.699-1.9766-16.844-5.9375-4.1367-3.957-6.2031-9.3281-6.2031-16.109 0-6.7891 2.0664-12.164 6.2031-16.125 4.1445-3.9688 9.7578-5.9531 16.844-5.9531 2.3633 0 4.6406 0.26562 6.8281 0.79688s4.2852 1.3242 6.2969 2.375v8.7969c-2.0312-1.3828-4.0391-2.3984-6.0156-3.0469-1.9688-0.64453-4.0469-0.96875-6.2344-0.96875-3.9062 0-6.9844 1.2578-9.2344 3.7656-2.2422 2.5-3.3594 5.9531-3.3594 10.359 0 4.3867 1.1172 7.8359 3.3594 10.344 2.25 2.5 5.3281 3.75 9.2344 3.75 2.1875 0 4.2656-0.32031 6.2344-0.96875 1.9766-0.64453 3.9844-1.6602 6.0156-3.0469z"/>
  </symbol>
  <symbol id="a" overflow="visible">
   <path d="m16.031-40.953v9.0625h10.516v7.2812h-10.516v13.531c0 1.4805 0.28906 2.4805 0.875 3 0.59375 0.52344 1.7656 0.78125 3.5156 0.78125h5.2344v7.2969h-8.7344c-4.0312 0-6.8867-0.83594-8.5625-2.5156-1.6797-1.6875-2.5156-4.5391-2.5156-8.5625v-13.531h-5.0781v-7.2812h5.0781v-9.0625z"/>
  </symbol>
  <symbol id="e" overflow="visible">
   <path d="m26.594-27.234v-17.078h10.266v44.312h-10.266v-4.6094c-1.3984 1.875-2.9453 3.25-4.6406 4.125-1.6875 0.875-3.6406 1.3125-5.8594 1.3125-3.9297 0-7.1562-1.5625-9.6875-4.6875-2.5234-3.125-3.7812-7.1445-3.7812-12.062 0-4.9141 1.2578-8.9375 3.7812-12.062 2.5312-3.125 5.7578-4.6875 9.6875-4.6875 2.1953 0 4.1445 0.44531 5.8438 1.3281 1.707 0.88672 3.2578 2.2578 4.6562 4.1094zm-6.7188 20.656c2.1875 0 3.8516-0.79688 5-2.3906 1.1445-1.5938 1.7188-3.9102 1.7188-6.9531 0-3.0391-0.57422-5.3594-1.7188-6.9531-1.1484-1.5938-2.8125-2.3906-5-2.3906-2.168 0-3.8242 0.79688-4.9688 2.3906-1.1484 1.5938-1.7188 3.9141-1.7188 6.9531 0 3.043 0.57031 5.3594 1.7188 6.9531 1.1445 1.5938 2.8008 2.3906 4.9688 2.3906z"/>
  </symbol>
  <symbol id="d" overflow="visible">
   <path d="m21.875-6.5781c2.1758 0 3.8359-0.79688 4.9844-2.3906 1.1562-1.5938 1.7344-3.9102 1.7344-6.9531 0-3.0391-0.57812-5.3594-1.7344-6.9531-1.1484-1.5938-2.8086-2.3906-4.9844-2.3906-2.1875 0-3.8672 0.80469-5.0312 2.4062-1.168 1.6055-1.75 3.918-1.75 6.9375 0 3.0234 0.58203 5.3359 1.75 6.9375 1.1641 1.6055 2.8438 2.4062 5.0312 2.4062zm-6.7812-20.656c1.4062-1.8516 2.9609-3.2227 4.6719-4.1094 1.707-0.88281 3.6719-1.3281 5.8906-1.3281 3.9375 0 7.1641 1.5625 9.6875 4.6875 2.5195 3.125 3.7812 7.1484 3.7812 12.062 0 4.918-1.2617 8.9375-3.7812 12.062-2.5234 3.125-5.75 4.6875-9.6875 4.6875-2.2188 0-4.1836-0.44531-5.8906-1.3281-1.7109-0.88281-3.2656-2.2539-4.6719-4.1094v4.6094h-10.188v-44.312h10.188z"/>
  </symbol>
  <symbol id="c" overflow="visible">
   <path d="m4.9062-31.891h10.188v31.891h-10.188zm0-12.422h10.188v8.3125h-10.188z"/>
  </symbol>
 </defs>
 <path transform="matrix(11.667 0 0 11.667 70 0)" d="m33.21 30.328v11.919c0 2.614-2.106 4.7531-4.6811 4.7531l-22.847-3.35e-4c-2.5748 0-4.6818-2.1388-4.6818-4.7528v-36.494c0-2.614 2.107-4.7528 4.6818-4.7528h22.848c2.5741 0 4.6811 2.1388 4.6811 4.7531v8.1439" fill="none" stroke="#5EF8FF" stroke-linecap="round" stroke-linejoin="round" stroke-miterlimit="10" stroke-width="2"/>
 <path transform="matrix(11.667 0 0 11.667 70 0)" d="m6.6579 7.961h20.027" fill="none" stroke="#5EF8FF" stroke-linecap="round" stroke-linejoin="round" stroke-miterlimit="10" stroke-width="2"/>
 <path transform="matrix(11.667 0 0 11.667 70 0)" d="m6.6579 15.516h20.027" fill="none" stroke="#5EF8FF" stroke-linecap="round" stroke-linejoin="round" stroke-miterlimit="10" stroke-width="2"/>
 <path transform="matrix(11.667 0 0 11.667 70 0)" d="m6.6579 23.071h10.013" fill="none" stroke="#5EF8FF" stroke-linecap="round" stroke-linejoin="round" stroke-miterlimit="10" stroke-width="2"/>
 <path transform="matrix(11.667 0 0 11.667 70 0)" d="m6.6579 30.625h7.0912" fill="none" stroke="#5EF8FF" stroke-linecap="round" stroke-linejoin="round" stroke-miterlimit="10" stroke-width="2"/>
 <path transform="matrix(11.667 0 0 11.667 70 0)" d="m6.6579 38.182h6.1319" fill="none" stroke="#5EF8FF" stroke-linecap="round" stroke-linejoin="round" stroke-miterlimit="10" stroke-width="2"/>
 <path transform="matrix(11.667 0 0 11.667 70 0)" d="m18.252 37.113c0-1.9979-0.075-3.607 0.674-5.464 0.65692-1.6269 1.1411-3.4158 2.336-4.6878 0.46105-0.48884 0.94085-0.43092 1.3229-0.75603 0.5019-0.4269 0.93013-1.584 1.3021-2.164 1.0908-1.7019 2.7629-3.0951 4.5549-3.814 0.37098-0.14699 0.9971-0.14498 1.3081-0.38806 0.58895-0.46205 0.76406-1.507 1.2459-2.103 0.83806-1.0319 2.632-1.7602 3.8471-1.9339 0.75-0.10413 1.492 0.11216 2.2051-0.17411 0.99911-0.40212 1.8539-1.134 2.9729-1.3229 1.939-0.32511 3.9131-0.33315 5.8801-0.22199 0.38806 0.021094 0.75301 0.006027 1.0999 0.11987-0.33214 0.49989-0.96194 0.86987-1.3681 1.3621-0.77109 0.93716-1.351 2.092-1.8961 3.1939-0.60201 1.211-0.83504 2.3401-1.9872 2.9869 2.477 0.47612-2.0129 2.182-2.7 2.324-0.85312 0.17812-5.7342 1.3031-5.6451 2.1881 1.5121 0.31808-0.17913 1.4719-0.66094 1.731-0.83906 0.45-2.104 1.1471-2.7211 1.9138 2.6481 2.2691-2.8031 2.5701-2.9789 4.34-0.049889 0.50792 0.524 0.93013 0.299 1.489-0.13996 0.34688-1.1648 0.79888-1.497 0.88393-0.91507 0.23705-2.0451 0.028125-2.914 0.17612-4.0299 0.676-6.078 3.7209-8.6079 6.9981" fill="none" stroke="#5EF8FF" stroke-linecap="round" stroke-linejoin="round" stroke-miterlimit="10" stroke-width="2"/>
 <g>
  <use x="70" y="735" xlink:href="#b"/>
  <use x="220.503906" y="735" xlink:href="#a"/>
  <use x="287.953125" y="735" xlink:href="#e"/>
  <use x="350.015625" y="735" xlink:href="#d"/>
  <use x="450.105469" y="735" xlink:href="#b"/>
  <use x="600.609375" y="735" xlink:href="#a"/>
  <use x="628.496094" y="735" xlink:href="#c"/>
 </g>
</svg>
