<svg width="130" height="30" viewBox="0 0 130 30" fill="none" xmlns="http://www.w3.org/2000/svg">
<path d="M109.046 29.2671H115.453V17.5469C115.453 14.8661 117.005 12.9829 119.311 12.9829C121.528 12.9829 122.681 14.5338 122.681 16.7715V29.2671H129.088V15.553C129.088 10.9003 126.295 7.62134 121.772 7.62134C118.889 7.62134 116.872 8.86204 115.364 11.1219H115.231V8.24169H109.023L109.046 29.2671ZM96.4526 7.66565C89.757 7.66565 85.2785 12.4734 85.2785 18.8098C85.2785 25.1019 89.757 29.9539 96.4526 29.9539C103.148 29.9539 107.627 25.1019 107.627 18.8098C107.649 12.4734 103.148 7.66565 96.4526 7.66565ZM96.4083 25.2127C93.3709 25.2127 91.7524 22.6648 91.7524 18.8098C91.7524 14.9105 93.3487 12.4069 96.4083 12.4069C99.4457 12.4069 101.131 14.9105 101.131 18.8098C101.153 22.6648 99.4679 25.2127 96.4083 25.2127ZM67.0098 29.2671H85.0125V24.2157H74.8139V24.0828L84.5691 13.1602V8.21953H67.0098V13.2931H76.8758V13.426L67.0098 24.4373V29.2671ZM58.7844 29.2671H65.2361V8.24169H58.7844V29.2671ZM43.8191 29.2671H50.2487V19.6074C50.2487 15.2206 52.887 13.271 56.8999 13.8248H57.0329V8.286C56.7004 8.15307 56.3235 8.13091 55.7249 8.13091C53.2195 8.13091 51.5346 9.28299 50.0935 11.7422H49.9604V8.24169H43.8191V29.2671ZM32.0243 25.2349C29.1864 25.2349 27.4571 23.396 27.1245 20.5601H42.2893C42.3337 16.0404 41.1365 12.4291 38.6312 10.1692C36.8575 8.52971 34.5296 7.62134 31.5587 7.62134C25.2178 7.62134 20.828 12.4291 20.828 18.7212C20.828 25.0576 25.0183 29.8875 31.9799 29.8875C34.6182 29.8875 36.7023 29.1785 38.4316 28.0043C40.2718 26.7414 41.602 24.8804 41.9568 23.0415H35.7933C35.1947 24.4151 33.9088 25.2349 32.0243 25.2349ZM31.6917 12.2075C33.9531 12.2075 35.5051 13.8913 35.7711 16.3506H27.1688C27.6788 13.8692 29.0312 12.2075 31.6917 12.2075ZM8.01327 29.2671H14.7532L22.0696 8.24169H15.6179L11.5163 21.7565H11.4276L7.32597 8.24169H0.696899L8.01327 29.2671ZM58.7844 0.753174H65.2361V6.46926H58.7844V0.753174Z" fill="gray"/>
</svg>
